<svg xmlns="http://www.w3.org/2000/svg" width="20.675" height="13.297" viewBox="0 0 20.675 13.297">
  <g id="Document_Receive" data-name="Document Receive" transform="translate(0.5 0.5)">
    <g id="Icon_feather-file-text" data-name="Icon feather-file-text" transform="translate(-6 -3)">
      <path id="Path_12048" data-name="Path 12048" d="M12.148,3H7.23A1.23,1.23,0,0,0,6,4.23v9.838A1.23,1.23,0,0,0,7.23,15.3h7.378a1.23,1.23,0,0,0,1.23-1.23V6.689Z" fill="none" stroke="#000" stroke-linecap="round" stroke-linejoin="round" stroke-width="1"/>
      <path id="Path_12049" data-name="Path 12049" d="M21,3V6.689h3.689" transform="translate(-8.852)" fill="none" stroke="#000" stroke-linecap="round" stroke-linejoin="round" stroke-width="1"/>
      <path id="Path_12050" data-name="Path 12050" d="M16.919,19.5H12" transform="translate(-3.541 -9.737)" fill="none" stroke="#000" stroke-linecap="round" stroke-linejoin="round" stroke-width="1"/>
      <path id="Path_12051" data-name="Path 12051" d="M16.919,25.5H12" transform="translate(-3.541 -13.277)" fill="none" stroke="#000" stroke-linecap="round" stroke-linejoin="round" stroke-width="1"/>
      <path id="Path_12052" data-name="Path 12052" d="M13.23,13.5H12" transform="translate(-3.541 -6.196)" fill="none" stroke="#000" stroke-linecap="round" stroke-linejoin="round" stroke-width="1"/>
    </g>
    <path id="Icon_ionic-ios-arrow-round-up" data-name="Icon ionic-ios-arrow-round-up" d="M16.233,10.643a.346.346,0,0,1-.487,0L14.134,9.039v6.123a.344.344,0,0,1-.688,0V9.039l-1.612,1.609a.348.348,0,0,1-.487,0,.343.343,0,<svg xmlns="http://www.w3.org/2000/svg" width="20.675" height="13.297" viewBox="0 0 20.675 13.297">
  <g id="Document_Receive" data-name="Document Receive" transform="translate(0.5 0.5)">
    <g id="Icon_feather-file-text" data-name="Icon feather-file-text" transform="translate(-6 -3)">
      <path id="Path_12048" data-name="Path 12048" d="M12.148,3H7.23A1.23,1.23,0,0,0,6,4.23v9.838A1.23,1.23,0,0,0,7.23,15.3h7.378a1.23,1.23,0,0,0,1.23-1.23V6.689Z" fill="none" stroke="#000" stroke-linecap="round" stroke-linejoin="round" stroke-width="1"/>
      <path id="Path_12049" data-name="Path 12049" d="M21,3V6.689h3.689" transform="translate(-8.852)" fill="none" stroke="#000" stroke-linecap="round" stroke-linejoin="round" stroke-width="1"/>
      <path id="Path_12050" data-name="Path 12050" d="M16.919,19.5H12" transform="translate(-3.541 -9.737)" fill="none" stroke="#000" stroke-linecap="round" stroke-linejoin="round" stroke-width="1"/>
      <path id="Path_12051" data-name="Path 12051" d="M16.919,25.5H12" transform="translate(-3.541 -13.277)" fill="none" stroke="#000" stroke-linecap="round" stroke-linejoin="round" stroke-width="1"/>
      <path id="Path_12052" data-name="Path 12052" d="M13.23,13.5H12" transform="translate(-3.541 -6.196)" fill="none" stroke="#000" stroke-linecap="round" stroke-linejoin="round" stroke-width="1"/>
    </g>
    <path id="Icon_ionic-ios-arrow-round-up" data-name="Icon ionic-ios-arrow-round-up" d="M16.233,10.643a.346.346,0,0,1-.487,0L14.134,9.039v6.123a.344.344,0,0,1-.688,0V9.039l-1.612,1.609a.348.348,0,0,1-.487,0,.343.343,0,0,1,0-.484l2.2-2.181h0a.386.386,0,0,1,.109-.071.328.328,0,0,1,.132-.026.345.345,0,0,1,.241.1l2.2,2.181A.337.337,0,0,1,16.233,10.643Z" transform="translate(31.422 20.179) rotate(180)"/>
  </g>
</svg>
