<svg xmlns="http://www.w3.org/2000/svg" width="17.813" height="17.813" viewBox="0 0 17.813 17.813">
  <g id="Settings" transform="translate(0.707 0.707)">
    <g id="Icon_feather-settings" data-name="Icon feather-settings" transform="translate(8.2) rotate(45)">
      <path id="Path_12040" data-name="Path 12040" d="M3.163,1.581A1.581,1.581,0,1,1,1.581,0,1.581,1.581,0,0,1,3.163,1.581Z" transform="translate(4.217 4.217)" fill="none" stroke="#4b4b4b" stroke-linecap="round" stroke-linejoin="round" stroke-width="1"/>
      <path id="Path_12041" data-name="Path 12041" d="M9.7,7.379a.87.87,0,0,0,.174.959L9.9,8.37A1.055,1.055,0,1,1,8.412,9.862L8.381,9.83a.877.877,0,0,0-1.486.622v.09a1.054,1.054,0,0,1-2.108,0v-.047a.87.87,0,0,0-.569-.8.87.87,0,0,0-.959.174L3.226,9.9A1.055,1.055,0,1,1,1.734,8.412l.032-.032a.877.877,0,0,0-.622-1.486h-.09a1.054,1.054,0,0,1,0-2.108H1.1a.87.87,0,0,0,.8-.569.87.87,0,0,0-.174-.959l-.032-.032A1.055,1.055,0,1,1,3.184,1.734l.032.032a.87.87,0,0,0,.959.174h.042a.87.87,0,0,0,.527-.8v-.09a1.054,1.054,0,0,1,2.108,0V1.1a.877.877,0,0,0,1.486.622l.032-.032A1.055,1.055,0,1,1,9.862,3.184l-.032.032a.87.87,0,0,0-.174.959v.042a.87.87,0,0,0,.8.527h.09a1.054,1.054,0,0,1,0,2.108h-<svg xmlns="http://www.w3.org/2000/svg" width="17.813" height="17.813" viewBox="0 0 17.813 17.813">
  <g id="Settings" transform="translate(0.707 0.707)">
    <g id="Icon_feather-settings" data-name="Icon feather-settings" transform="translate(8.2) rotate(45)">
      <path id="Path_12040" data-name="Path 12040" d="M3.163,1.581A1.581,1.581,0,1,1,1.581,0,1.581,1.581,0,0,1,3.163,1.581Z" transform="translate(4.217 4.217)" fill="none" stroke="#4b4b4b" stroke-linecap="round" stroke-linejoin="round" stroke-width="1"/>
      <path id="Path_12041" data-name="Path 12041" d="M9.7,7.379a.87.87,0,0,0,.174.959L9.9,8.37A1.055,1.055,0,1,1,8.412,9.862L8.381,9.83a.877.877,0,0,0-1.486.622v.09a1.054,1.054,0,0,1-2.108,0v-.047a.87.87,0,0,0-.569-.8.87.87,0,0,0-.959.174L3.226,9.9A1.055,1.055,0,1,1,1.734,8.412l.032-.032a.877.877,0,0,0-.622-1.486h-.09a1.054,1.054,0,0,1,0-2.108H1.1a.87.87,0,0,0,.8-.569.87.87,0,0,0-.174-.959l-.032-.032A1.055,1.055,0,1,1,3.184,1.734l.032.032a.87.87,0,0,0,.959.174h.042a.87.87,0,0,0,.527-.8v-.09a1.054,1.054,0,0,1,2.108,0V1.1a.877.877,0,0,0,1.486.622l.032-.032A1.055,1.055,0,1,1,9.862,3.184l-.032.032a.87.87,0,0,0-.174.959v.042a.87.87,0,0,0,.8.527h.09a1.054,1.054,0,0,1,0,2.108h-.047a.87.87,0,0,0-.8.527Z" transform="translate(0 0)" fill="none" stroke="#4b4b4b" stroke-linecap="round" stroke-linejoin="round" stroke-width="1"/>
    </g>
  </g>
</svg>
