<svg xmlns="http://www.w3.org/2000/svg" width="20.188" height="20.195" viewBox="0 0 20.188 20.195">
  <g id="Action" transform="translate(0.882 0.883)">
    <path id="Icon_ionic-ios-settings" data-name="Icon ionic-ios-settings" d="M21.4,13.712A2.371,2.371,0,0,1,22.924,11.5a9.4,9.4,0,0,0-1.137-2.74,2.4,2.4,0,0,1-.964.206,2.366,2.366,0,0,1-2.164-3.33A9.369,9.369,0,0,0,15.924,4.5a2.369,2.369,0,0,1-4.424,0,9.4,9.4,0,0,0-2.74,1.137A2.366,2.366,0,0,1,6.6,8.967a2.324,2.324,0,0,1-.964-.206A9.605,9.605,0,0,0,4.5,11.505a2.37,2.37,0,0,1,0,4.424,9.4,9.4,0,0,0,1.137,2.74,2.367,2.367,0,0,1,3.124,3.124,9.452,9.452,0,0,0,2.74,1.137,2.365,2.365,0,0,1,4.414,0,9.4,9.4,0,0,0,2.74-1.137,2.369,2.369,0,0,1,3.124-3.124,9.453,9.453,0,0,0,1.137-2.74A2.382,2.382,0,0,1,21.4,13.712Zm-7.648,3.834a3.838,3.838,0,1,1,3.838-3.838A3.837,3.837,0,0,1,13.755,17.546Z" transform="translate(-4.5 -4.5)" fill="none" stroke="#33b5e5" stroke-width="1.5"/>
  </g>
</svg>
