<svg id="Date" xmlns="http://www.w3.org/2000/svg" width="18.518" height="20.575" viewBox="0 0 18.518 20.575">
  <path id="Icon_material-event-note" data-name="Icon material-event-note" d="M18.9,10.759H8.615v2.058H18.9Zm2.058-7.2H19.931V1.5H17.874V3.558H9.644V1.5H7.586V3.558H6.558A2.048,2.048,0,0,0,4.51,5.615l-.01,14.4a2.057,2.057,0,0,0,2.058,2.058h14.4a2.064,2.064,0,0,0,2.058-2.058V5.615A2.064,2.064,0,0,0,20.96,3.558Zm0,16.46H6.558V8.7h14.4Zm-5.144-5.144h-7.2v2.058h7.2Z" transform="translate(-4.5 -1.5)" fill="#876df5"/>
</svg>
