<svg id="Document" xmlns="http://www.w3.org/2000/svg" width="14.698" height="19.701" viewBox="0 0 14.698 19.701">
  <path id="Path_11573" data-name="Path 11573" d="M.109,57.267V76.239a.366.366,0,0,0,.367.365H14.44a.366.366,0,0,0,.367-.365V60.916c0-.008,0-.015,0-.023a.342.342,0,0,0-.019-.094c0-.012-.007-.023-.012-.034a.361.361,0,0,0-.074-.107l-3.674-3.648a.357.357,0,0,0-.108-.073l-.034-.012a.366.366,0,0,0-.1-.019c-.006,0-.013,0-.021,0H.477a.366.366,0,0,0-.367.365Zm13.444,3.284h-2.42v-2.4ZM.844,57.632H10.4v3.284a.366.366,0,0,0,.367.365h3.307V75.874H.844Zm0,0" transform="translate(-0.109 -56.902)" fill="#20a1b3"/>
</svg>
