<svg xmlns="http://www.w3.org/2000/svg" width="26.099" height="26.099" viewBox="0 0 26.099 26.099">
  <g id="Flow" transform="translate(0.25 0.25)">
    <path id="Icon_metro-flow-tree" data-name="Icon metro-flow-tree" d="M27.188,21.836V18.671a4.766,4.766,0,0,0-4.766-4.766H19.7a2.043,2.043,0,0,1-2.042-2.042V8.7a3.268,3.268,0,1,0-2.723,0v3.164a2.043,2.043,0,0,1-2.042,2.042H10.168A4.766,4.766,0,0,0,5.4,18.671v3.164a3.268,3.268,0,1,0,2.723,0V18.671a2.043,2.043,0,0,1,2.042-2.042h2.723a4.716,4.716,0,0,0,2.042-.477v5.683a3.268,3.268,0,1,0,2.723,0V16.152a4.716,4.716,0,0,0,2.042.477h2.723a2.043,2.043,0,0,1,2.042,2.042v3.164a3.268,3.268,0,1,0,2.723,0ZM16.3,3.85a1.886,1.886,0,1,1-1.884,1.886A1.885,1.885,0,0,1,16.3,3.85ZM6.764,26.684A1.886,1.886,0,1,1,8.649,24.8a1.886,1.886,0,0,1-1.884,1.886Zm9.531,0A1.886,1.886,0,1,1,18.18,24.8,1.886,1.886,0,0,1,16.3,26.684Zm9.531,0A1.886,1.886,0,1,1,27.711,24.8a1.886,1.886,0,0,1-1.884,1.886Z" transform="translate(-3.496 -2.468)" fill="#f39d20" stroke="#fff" stroke-width="0.5"/>
  </g>
</svg>
