<svg id="Notify" xmlns="http://www.w3.org/2000/svg" width="18.667" height="21.833" viewBox="0 0 18.667 21.833">
  <path id="Path_11558" data-name="Path 11558" d="M19.2,28.336a.723.723,0,0,0-.709.569,1.4,1.4,0,0,1-.279.608,1.054,1.054,0,0,1-.9.329,1.072,1.072,0,0,1-.9-.329,1.4,1.4,0,0,1-.279-.608.723.723,0,0,0-.709-.569h0a.727.727,0,0,0-.709.887,2.493,2.493,0,0,0,2.594,2.07,2.488,2.488,0,0,0,2.594-2.07.73.73,0,0,0-.709-.887Z" transform="translate(-7.996 -9.46)" fill="#df3434"/>
  <path id="Path_11559" data-name="Path 11559" d="M25.207,20.02c-.9-1.1-2.669-1.749-2.669-6.685,0-5.066-2.406-7.1-4.648-7.592-.21-.049-.362-.114-.362-.32V5.266a1.382,1.382,0,0,0-1.4-1.336h-.035a1.382,1.382,0,0,0-1.4,1.336v.157c0,.2-.152.272-.362.32C12.08,6.238,9.68,8.269,9.68,13.336c0,4.936-1.769,5.577-2.669,6.685a1.075,1.075,0,0,0,.928,1.727H24.3A1.074,1.074,0,0,0,25.207,20.02Zm-2.277.315H9.312a.237.237,0,0,1-.193-.4,6.539,6.539,0,0,0,1.226-1.814,11.535,11.535,0,0,0,.835-4.79A7.876,7.876,0,0,1,12.4,8.622a3.764,3.764,0,0,1,2.26-1.5,2.087,2.087,0,0,0,1.086-.57.485.485,0,0,1,.695-.011,2.16,2.16,0,0,0,1.1.581,3.764,3.764,0,0,1,2.26,1.5,7.876,7.876,0,0,1,1.22,4.713,11.535,11.535,0,0,0,.835,4.79,6.619,6.619,0,0,0,1.256,1.841A.223.223,0,0,1,22.93,20.335Z" transform="translate(-6.775 -3.93)" fill="#df3434"/>
</svg>
