<svg xmlns="http://www.w3.org/2000/svg" width="12.487" height="13.91" viewBox="0 0 12.487 13.91">
  <g id="Notes_Active" data-name="Notes Active" transform="translate(0.1 0.1)">
    <g id="Group_12349" data-name="Group 12349">
      <path id="Path_12129" data-name="Path 12129" d="M113.046,200.536a.536.536,0,0,0-.536-.536h-5.516a.536.536,0,0,0,0,1.071h5.516A.536.536,0,0,0,113.046,200.536Z" transform="translate(-104.32 -194.645)" fill="#fff" stroke="#545f75" stroke-width="0.2"/>
      <path id="Path_12130" data-name="Path 12130" d="M106.995,280a.536.536,0,0,0,0,1.071h3.35a.536.536,0,0,0,0-1.071Z" transform="translate(-104.32 -272.503)" fill="#fff" stroke="#545f75" stroke-width="0.2"/>
      <path id="Path_12131" data-name="Path 12131" d="M30.5,12.639H28.712a1.072,1.072,0,0,1-1.071-1.071V2.142a1.072,1.072,0,0,1,1.071-1.071H35.3a1.072,1.072,0,0,1,1.071,1.071V5.436a.536.536,0,1,0,1.071,0V2.142A2.145,2.145,0,0,0,35.3,0H28.712A2.145,2.145,0,0,0,26.57,2.142v9.425a2.145,2.145,0,0,0,2.142,2.142H30.5a.536.536,0,0,0,0-1.071Z" transform="translate(-26.57)" fill="#fff" stroke="#545f75" stroke-width="0.2"/>
      <path id="Path_12132" data-name="Path 12132" d="M249.466,272.494a1.608,1.608,0,0,0-2.272,0l-2.94,2.934a.536.536,0,0,0-.134.223l-.64,2.108a.535.535,0,0,0,.655.672l2.161-.6a.535.535,0,0,0,.235-.137l2.934-2.928A1.608,1.608,0,0,0,249.466,272.494Zm-3.591,4.343-1.087.3.318-1.048,1.984-1.979.758.758Zm2.834-2.829-.1.1-.757-.757.1-.1a.536.536,0,0,1,.758.757Z" transform="translate(-237.65 -264.74)" fill="#fff" stroke="#545f75" stroke-width="0.2"/>
      <path id="Path_12133" data-name="Path 12133" d="M112.511,120h-5.516a.536.536,0,1,0,0,1.071h5.516a.536.536,0,1,0,0-1.071Z" transform="translate(-104.32 -116.787)" fill="#fff" stroke="#545f75" stroke-width="0.2"/>
    </g>
  </g>
</svg>
