<svg id="Notification" xmlns="http://www.w3.org/2000/svg" xmlns:xlink="http://www.w3.org/1999/xlink" width="14.744" height="16.364" viewBox="0 0 14.744 16.364">
  <defs>
    <clipPath id="clip-path">
      <path id="bx-bell" d="M4.909,13.909H.818a.819.819,0,0,1-.776-1.077L.818,10.5V8.181C.818,4.436,2.83,1.672,5.861.987a1.637,1.637,0,0,1,3,0c3.032.685,5.044,3.449,5.044,7.195V10.5l.728,2.183a.805.805,0,0,1,.107.4.818.818,0,0,1-.819.819H9.818a2.455,2.455,0,0,1-4.909,0Z" fill="none"/>
    </clipPath>
  </defs>
  <g id="Group_3" data-name="Group 3">
    <path id="bx-bell-2" data-name="bx-bell" d="M4.909,13.909H.818a.819.819,0,0,1-.776-1.077L.818,10.5V8.181C.818,4.436,2.83,1.672,5.861.987a1.637,1.637,0,0,1,3,0c3.032.685,5.044,3.449,5.044,7.195V10.5l.728,2.183a.805.805,0,0,1,.107.4.818.818,0,0,1-.819.819H9.818a2.455,2.455,0,0,1-4.909,0Z" fill="none"/>
    <g id="Mask_Group_3" data-name="Mask Group 3" clip-path="url(#clip-path)">
      <path id="_color" data-name="🎨 color" d="M0,0H24V24H0Z" transform="translate(-4.636 -3.818)" fill="#d1dce3"/>
    </g>
  </g>
</svg>
