<svg xmlns="http://www.w3.org/2000/svg" width="13.584" height="13.584" viewBox="0 0 13.584 13.584">
  <g id="Settings" transform="translate(0.5 0.5)">
    <path id="Path_12242" data-name="Path 12242" d="M16.932,15.216A1.716,1.716,0,1,1,15.216,13.5,1.716,1.716,0,0,1,16.932,15.216Z" transform="translate(-8.924 -8.924)" fill="none" stroke="#000" stroke-linecap="round" stroke-linejoin="round" stroke-width="1"/>
    <path id="Path_12243" data-name="Path 12243" d="M12.025,9.508a.944.944,0,0,0,.189,1.041l.034.034A1.145,1.145,0,1,1,10.629,12.2l-.034-.034a.951.951,0,0,0-1.613.675v.1a1.144,1.144,0,1,1-2.288,0v-.051a.99.99,0,0,0-1.659-.675L5,12.248a1.145,1.145,0,1,1-1.619-1.619l.034-.034a.951.951,0,0,0-.675-1.613h-.1a1.144,1.144,0,1,1,0-2.288H2.7A.99.99,0,0,0,3.37,5.035L3.336,5A1.145,1.145,0,1,1,4.955,3.382l.034.034A.944.944,0,0,0,6.03,3.6h.046a.944.944,0,0,0,.572-.864v-.1a1.144,1.144,0,1,1,2.288,0V2.7a.951.951,0,0,0,1.613.675l.034-.034A1.145,1.145,0,1,1,12.2,4.955l-.034.034a.944.944,0,0,0-.189,1.041v.046a.944.944,0,0,0,.864.572h.1a1.144,1.144,0,1,1,0,2.288h-.051a.944.944,0,0,0-.864.572Z" transform="translate(-1.5 -1.5)" fill="none" stroke="#000" stroke-linecap="round" stroke-linejoin="round" stroke-width="1"/>
  </g>
</svg>
