<svg id="Signature" xmlns="http://www.w3.org/2000/svg" width="17.855" height="10.717" viewBox="0 0 17.855 10.717">
  <path id="Icon_awesome-signature" data-name="Icon awesome-signature" d="M17.394,8.072c-1.446.1-3.508,1.527-4.552,2a5.777,5.777,0,0,1-2.124.681c-.631,0-.726-.452-.594-1.448.031-.223.327-2.21-1.192-2.124-.7.042-1.795.692-4.731,3.517L5.36,7.8A2.411,2.411,0,0,0,1.74,4.929L.208,5.959a.449.449,0,0,0-.137.617l.48.754a.444.444,0,0,0,.617.137L2.786,6.38a.623.623,0,0,1,.913.756L.958,13.991a.892.892,0,0,0,.829,1.225.883.883,0,0,0,.631-.262C3.6,13.776,6.736,10.748,8.312,9.49a2.9,2.9,0,0,0,.575,2.339,2.355,2.355,0,0,0,1.828.706A7.058,7.058,0,0,0,13.57,11.7c.921-.413,2.763-1.747,3.863-1.836a.448.448,0,0,0,.424-.441v-.9a.443.443,0,0,0-.463-.452Z" transform="translate(-0.002 -4.499)"/>
</svg>
