<svg id="Sun" xmlns="http://www.w3.org/2000/svg" width="20" height="19.909" viewBox="0 0 20 19.909">
  <path id="Icon_material-wb-sunny" data-name="Icon material-wb-sunny" d="M6.736,4.725,5.1,3.1,3.818,4.38,5.445,6.007ZM4.227,9.87H1.5v1.818H4.227ZM12.409.825H10.591V3.507h1.818V.825ZM19.182,4.38,17.9,3.1,16.273,4.725l1.282,1.282ZM16.264,16.834l1.627,1.636,1.282-1.282-1.636-1.627-1.273,1.273ZM18.773,9.87v1.818H21.5V9.87ZM11.5,5.325a5.455,5.455,0,1,0,5.455,5.455A5.459,5.459,0,0,0,11.5,5.325Zm-.909,15.409h1.818V18.052H10.591ZM3.818,17.18,5.1,18.461l1.627-1.636L5.445,15.543,3.818,17.18Z" transform="translate(-1.5 -0.825)" fill="#fbbd2c"/>
</svg>
