<svg id="Task_Active" data-name="Task Active" xmlns="http://www.w3.org/2000/svg" width="11.941" height="10.076" viewBox="0 0 11.941 10.076">
  <path id="Icon_awesome-tasks" data-name="Icon awesome-tasks" d="M3.256,2.33a.28.28,0,0,0-.4,0L1.374,3.807.845,3.291a.28.28,0,0,0-.4,0l-.366.367a.28.28,0,0,0,0,.4L1.192,5.16a.3.3,0,0,0,.411,0L1.967,4.8,3.651,3.112a.282.282,0,0,0,0-.4Zm0,3.713a.28.28,0,0,0-.4,0L1.374,7.529.845,7.014a.28.28,0,0,0-.4,0L.082,7.38a.28.28,0,0,0,0,.4L1.189,8.884a.3.3,0,0,0,.41,0l.366-.366L3.65,6.834a.28.28,0,0,0,0-.394ZM1.493,10.085a1.12,1.12,0,1,0,0,2.239,1.12,1.12,0,0,0,0-2.239Zm10.076.373H4.851a.373.373,0,0,0-.373.373v.746a.373.373,0,0,0,.373.373h6.717a.373.373,0,0,0,.373-.373v-.746A.373.373,0,0,0,11.568,10.458Zm0-7.463H4.851a.373.373,0,0,0-.373.373v.746a.373.373,0,0,0,.373.373h6.717a.373.373,0,0,0,.373-.373V3.368A.373.373,0,0,0,11.568,2.995Zm0,3.732H4.851a.373.373,0,0,0-.373.373v.746a.373.373,0,0,0,.373.373h6.717a.373.373,0,0,0,.373-.373V7.1A.373.373,0,0,0,11.568,6.727Z" transform="translate(0 -2.248)" fill="#fff"/>
</svg>
